<?xml version="1.0" standalone="no"?>
<!DOCTYPE svg PUBLIC "-//W3C//DTD SVG 20010904//EN"
 "http://www.w3.org/TR/2001/REC-SVG-20010904/DTD/svg10.dtd">
<svg version="1.0" xmlns="http://www.w3.org/2000/svg"
 width="512.000000pt" height="512.000000pt" viewBox="0 0 512.000000 512.000000"
 preserveAspectRatio="xMidYMid meet">
<metadata>
Created by potrace 1.11, written by Peter Selinger 2001-2013
</metadata>
<g transform="translate(0.000000,512.000000) scale(0.100000,-0.100000)"
fill="#000000" stroke="none">
<path d="M2540 3995 c0 -10 -5 -13 -12 -9 -7 5 -9 2 -5 -9 4 -11 1 -15 -13
-12 -14 3 -18 -1 -15 -16 2 -12 -2 -19 -11 -19 -8 0 -14 -5 -14 -11 0 -5 -4
-8 -9 -4 -5 3 -13 0 -17 -6 -4 -8 -3 -9 4 -5 17 10 15 -3 -2 -20 -11 -11 -16
-11 -19 -1 -3 6 -6 2 -6 -11 -1 -13 -5 -21 -10 -18 -4 3 -13 -6 -19 -19 -7
-14 -19 -25 -28 -25 -10 0 -15 -3 -11 -6 7 -7 -75 -90 -86 -87 -4 2 -6 0 -6
-5 3 -19 -2 -33 -10 -27 -5 3 -12 -4 -16 -15 -4 -11 -11 -18 -16 -15 -5 4 -9
1 -9 -4 0 -16 -43 -57 -55 -53 -5 2 -7 1 -4 -3 4 -3 -4 -18 -17 -32 -13 -14
-21 -31 -17 -37 4 -6 -1 -5 -11 3 -9 8 -16 10 -15 5 4 -22 -2 -35 -13 -28 -8
5 -9 2 -5 -10 4 -10 3 -15 -3 -11 -6 3 -13 -1 -16 -9 -3 -9 -13 -16 -21 -16
-8 0 -11 -4 -8 -10 3 -5 1 -10 -5 -10 -6 0 -9 -4 -5 -9 3 -5 -4 -12 -15 -16
-11 -3 -20 -13 -20 -20 0 -10 -6 -12 -17 -8 -16 6 -17 5 -3 -12 8 -10 10 -16
4 -12 -11 6 -38 -20 -63 -59 -11 -16 -12 -16 -7 -1 8 27 -3 20 -14 -9 -6 -14
-14 -22 -20 -19 -6 4 -7 -1 -3 -11 4 -12 3 -15 -5 -10 -8 4 -12 0 -12 -11 0
-14 -2 -15 -9 -5 -6 10 -10 7 -15 -12 -4 -17 -11 -24 -18 -20 -8 5 -9 1 -4
-12 4 -10 4 -15 0 -12 -12 12 -44 -11 -38 -27 5 -11 2 -13 -12 -8 -12 4 -15 3
-10 -5 4 -7 3 -12 -3 -12 -5 0 -13 -9 -16 -21 -4 -13 -12 -18 -21 -15 -8 3
-13 2 -10 -2 8 -13 -22 -44 -35 -36 -7 4 -10 3 -6 -3 4 -6 -7 -26 -25 -44 -18
-19 -31 -38 -30 -43 2 -5 -5 -6 -14 -2 -11 4 -15 2 -11 -8 4 -9 -2 -17 -14
-21 -11 -4 -18 -9 -15 -12 2 -3 -13 -22 -35 -44 -21 -21 -39 -43 -39 -49 0 -6
-4 -9 -9 -5 -6 3 -15 -4 -21 -15 -6 -11 -15 -18 -20 -15 -6 4 -7 -1 -3 -11 5
-13 3 -16 -10 -11 -11 4 -14 2 -10 -9 3 -7 1 -14 -5 -14 -5 0 -19 -15 -31 -32
-11 -18 -21 -28 -21 -22 0 5 3 14 8 20 4 5 -7 -7 -25 -26 -17 -19 -29 -38 -26
-42 4 -8 -12 -12 -30 -9 -5 1 -6 -3 -2 -8 3 -6 -12 -28 -34 -50 -22 -22 -36
-43 -33 -47 4 -4 -1 -4 -10 -1 -11 4 -19 0 -23 -14 -4 -10 -11 -19 -16 -19 -6
0 -8 -4 -5 -9 3 -5 -1 -12 -10 -15 -8 -3 -12 -11 -9 -16 4 -6 3 -10 -2 -9 -20
3 -34 -2 -28 -11 3 -5 -2 -10 -11 -10 -10 0 -15 -3 -11 -6 9 -9 -21 -36 -33
-29 -6 3 -7 0 -4 -9 4 -9 -1 -18 -10 -22 -9 -3 -13 -10 -10 -15 3 -5 1 -9 -3
-9 -5 0 -18 -7 -29 -16 -10 -8 -12 -12 -4 -8 8 4 2 -6 -15 -23 -16 -16 -33
-28 -36 -27 -4 2 -9 -6 -12 -17 -3 -12 -10 -18 -17 -14 -6 3 -9 3 -8 -2 2 -5
-12 -23 -30 -41 -18 -18 -30 -32 -27 -32 4 0 -11 -16 -32 -36 -21 -20 -37 -40
-35 -45 1 -5 -2 -10 -8 -10 -5 -1 -14 -2 -19 -3 -5 0 -13 -5 -18 -10 -5 -5 -2
-6 6 -1 9 5 12 3 9 -6 -3 -8 -10 -13 -16 -12 -6 2 -9 -3 -6 -11 3 -8 1 -17 -5
-21 -15 -9 -14 -28 2 -19 6 4 3 -2 -7 -14 -12 -14 -14 -22 -7 -22 7 0 9 -5 6
-10 -4 -6 -1 -9 7 -8 7 2 12 -3 10 -10 -1 -8 2 -11 8 -7 5 3 10 0 10 -7 0 -9
3 -9 10 2 7 11 10 11 10 2 0 -7 4 -10 10 -7 5 3 10 2 10 -3 0 -15 28 -23 36
-10 4 6 3 8 -4 4 -6 -3 -13 -2 -16 3 -7 10 20 9 30 -2 4 -4 18 -7 31 -7 17 0
22 4 17 13 -6 9 -5 9 7 0 16 -13 36 -12 58 1 9 6 12 5 8 -1 -4 -6 4 -10 18
-10 14 0 22 4 19 9 -4 6 3 5 14 -1 15 -8 23 -8 28 0 4 8 9 7 15 -2 7 -11 9
-11 9 1 0 12 2 13 9 1 5 -8 14 -10 22 -5 17 10 49 13 49 4 0 -9 62 -6 78 3 7
5 12 3 12 -4 0 -7 6 -4 14 7 14 18 15 18 21 1 4 -9 11 -17 17 -17 5 0 6 5 2
11 -5 8 -1 8 14 0 14 -7 23 -8 27 -1 3 5 11 10 16 10 6 0 7 -6 3 -12 -5 -9 -2
-9 9 1 13 10 17 10 17 1 0 -10 4 -10 16 1 13 10 17 10 24 0 6 -11 9 -11 13 0
5 12 6 12 6 0 1 -11 4 -11 18 0 13 11 17 11 20 2 3 -7 9 -13 14 -13 6 0 8 4 5
8 -2 4 4 8 15 8 10 0 19 -4 19 -9 0 -5 7 -4 15 3 9 7 15 8 15 2 0 -5 8 -8 19
-5 10 3 22 -1 26 -8 5 -8 4 -10 -3 -5 -7 4 -12 2 -12 -3 0 -6 6 -11 13 -11 7
0 8 -3 2 -8 -5 -4 -10 -29 -10 -57 0 -27 5 -53 10 -57 6 -5 5 -8 -4 -8 -11 0
-11 -3 -1 -15 7 -8 9 -15 4 -15 -10 0 -10 -102 0 -118 3 -6 -1 -18 -10 -26 -8
-9 -11 -16 -5 -16 6 0 9 -25 7 -60 -3 -68 -14 -61 111 -64 39 0 75 -4 79 -9 4
-4 16 1 27 10 11 10 17 12 13 6 -5 -9 0 -13 14 -13 13 0 19 4 14 12 -5 7 -3 8
7 2 23 -14 51 -15 44 -2 -4 7 1 4 9 -6 9 -11 16 -14 16 -8 0 8 9 10 26 6 21
-5 25 -4 19 6 -6 10 -4 11 6 4 23 -14 51 -15 44 -2 -4 7 1 4 9 -6 9 -11 16
-14 16 -8 0 8 9 10 26 6 22 -6 25 -4 19 7 -7 11 -6 12 6 3 8 -6 47 -10 87 -9
40 1 76 -3 79 -8 3 -4 14 0 26 10 11 10 17 12 13 6 -5 -9 0 -13 14 -13 13 0
19 4 14 12 -5 7 -3 8 7 2 23 -14 51 -15 44 -2 -4 7 1 4 9 -6 9 -11 16 -14 16
-8 0 8 9 10 26 6 21 -5 25 -4 19 6 -6 10 -4 11 6 4 23 -14 51 -15 44 -2 -4 7
1 4 9 -6 10 -12 16 -15 16 -7 0 8 6 11 15 7 8 -3 25 -1 37 4 13 5 18 9 12 9
-7 1 -14 8 -17 15 -4 11 -1 13 11 9 15 -6 15 -5 3 10 -11 14 -11 17 0 17 11 0
11 2 -1 10 -12 8 -13 11 -1 19 11 7 11 9 0 14 -12 5 -12 7 0 15 11 8 11 10 0
15 -12 5 -12 7 0 15 11 8 11 10 0 15 -12 5 -12 7 0 15 11 8 11 10 0 15 -12 5
-12 7 0 15 11 8 11 10 0 15 -12 5 -12 7 0 15 11 8 11 10 0 15 -12 5 -12 7 0
15 11 8 11 10 0 15 -12 5 -12 7 0 15 11 8 11 10 0 15 -12 5 -12 7 0 15 11 8
11 10 0 15 -12 5 -12 7 0 15 11 8 11 10 0 15 -12 5 -12 7 0 15 11 8 11 10 0
15 -12 4 -11 7 1 16 8 6 10 11 4 11 -19 0 -11 46 8 47 10 1 20 -2 23 -7 8 -13
36 0 29 14 -3 6 2 2 10 -8 9 -11 16 -14 16 -7 0 8 11 11 36 7 26 -5 34 -3 29
6 -4 7 0 5 7 -4 13 -15 15 -15 24 0 9 13 12 13 19 2 6 -9 4 -11 -5 -5 -9 6
-11 4 -5 -4 5 -9 10 -10 18 -2 13 13 61 15 53 2 -4 -5 2 -8 11 -7 9 2 19 8 21
14 2 6 10 8 18 5 8 -3 14 0 14 7 0 6 5 8 12 4 8 -5 9 -2 5 9 -3 10 -2 17 4 17
6 0 7 5 4 10 -3 6 0 10 7 10 10 0 10 2 -1 9 -8 5 -12 18 -9 29 4 15 2 19 -8
15 -8 -3 -14 0 -14 7 0 6 -4 9 -9 5 -5 -3 -12 -1 -16 5 -4 7 -12 7 -25 0 -23
-12 -33 -13 -26 -1 7 11 -13 9 -31 -2 -7 -5 -13 -6 -13 -2 0 3 -9 1 -19 -5
-14 -7 -22 -7 -27 2 -5 7 -3 8 6 3 9 -6 11 -4 5 5 -6 10 -10 10 -20 -3 -11
-15 -13 -15 -30 1 -10 10 -14 11 -10 3 6 -11 2 -13 -19 -9 -20 4 -26 2 -22 -8
3 -8 0 -11 -9 -7 -8 3 -12 10 -9 17 3 6 -2 2 -10 -8 -11 -13 -16 -15 -16 -6 0
7 -3 11 -6 7 -4 -3 -13 0 -20 8 -16 16 -19 29 -4 20 14 -9 13 8 -2 23 -7 7 -8
12 -2 12 6 0 11 7 11 15 0 8 -4 12 -9 9 -12 -8 -10 10 3 23 8 8 8 13 0 17 -6
4 -11 12 -11 17 0 6 4 8 8 5 5 -3 9 1 9 9 0 8 -4 12 -9 9 -4 -3 -8 -1 -8 5 0
5 5 13 10 16 8 5 8 11 1 19 -7 9 -7 16 1 24 9 9 8 12 -7 12 -18 0 -18 0 1 16
10 8 13 13 7 9 -16 -8 -17 7 -2 22 8 8 8 13 0 17 -15 10 -14 29 2 20 10 -6 10
-4 0 7 -7 7 -13 17 -13 22 0 4 6 5 13 1 10 -6 10 -4 0 7 -7 7 -13 17 -13 22 0
4 6 5 13 1 10 -6 10 -4 0 7 -7 7 -13 19 -13 27 0 8 5 10 13 6 7 -5 7 -1 -2 10
-13 15 -13 19 0 27 12 8 6 13 -12 11 -4 -1 -5 7 -2 18 3 11 10 17 17 13 6 -3
6 0 -1 8 -7 7 -13 19 -13 27 0 8 5 10 13 6 6 -4 3 3 -8 16 -19 22 -19 23 -1
16 14 -5 16 -3 9 6 -14 19 -14 60 0 51 7 -4 6 1 -2 11 -12 14 -12 19 -2 26 11
6 11 8 0 12 -12 4 -12 8 -1 20 10 13 10 18 1 24 -8 5 -9 3 -4 -6 5 -8 4 -11
-3 -6 -13 8 -5 36 12 36 6 0 4 5 -4 10 -12 8 -13 11 -1 19 11 7 11 9 0 13 -12
4 -11 8 1 23 8 11 10 16 3 11 -16 -9 -14 45 2 56 6 5 5 8 -4 8 -11 0 -11 3 0
17 10 11 10 14 2 9 -7 -4 -13 -3 -13 1 0 5 6 15 13 22 10 11 10 13 0 7 -7 -4
-13 -3 -13 1 0 5 6 15 13 22 10 11 10 13 0 7 -7 -4 -13 -3 -13 1 0 5 6 15 13
22 10 11 10 13 0 7 -7 -4 -13 -3 -13 1 0 5 6 15 13 22 10 11 10 13 0 7 -7 -4
-13 -3 -13 1 0 5 6 15 13 22 7 8 7 11 1 8 -7 -4 -11 3 -11 18 0 14 5 25 11 25
6 0 4 5 -4 10 -13 9 -13 11 0 20 8 5 10 10 4 10 -7 0 -14 7 -17 14 -4 11 -1
13 11 9 15 -6 15 -5 3 10 -11 14 -11 17 0 17 12 0 12 2 0 9 -9 6 -10 10 -2 16
9 5 9 10 0 21 -9 11 -8 14 2 14 12 0 12 2 0 9 -11 7 -11 9 0 14 12 5 12 6 0 6
-11 1 -11 4 0 18 12 15 12 16 -5 10 -15 -6 -17 -5 -8 6 7 8 9 17 5 20 -3 4 0
7 8 7 12 0 11 2 -1 10 -9 6 -11 13 -5 18 13 10 18 35 5 27 -5 -3 -10 -1 -10 4
0 6 6 11 13 11 9 0 8 3 -2 9 -11 7 -11 9 0 14 12 5 12 6 0 6 -10 1 -11 4 -2
15 9 10 9 16 1 21 -8 5 -8 11 1 21 9 11 8 14 -2 14 -11 0 -11 2 1 10 13 9 13
10 0 10 -13 0 -13 1 0 10 8 5 10 10 4 10 -6 0 -11 7 -11 15 0 8 4 15 9 15 5 0
7 4 4 9 -4 5 0 12 6 14 9 4 8 6 -3 6 -16 1 -23 31 -7 31 5 0 6 6 1 13 -11 18
-12 36 -2 43 5 3 9 10 9 15 0 6 -4 8 -9 5 -13 -9 -7 19 8 38 12 14 12 16 -1
11 -16 -6 -18 20 -4 43 4 7 2 12 -6 12 -8 0 -9 3 -3 8 16 11 19 46 3 36 -10
-6 -10 -4 1 9 11 14 11 17 0 17 -11 0 -11 2 1 10 12 8 13 11 1 19 -11 7 -11 9
0 13 11 4 10 8 -4 22 -15 16 -17 16 -17 1z m-974 -1257 c-7 -5 -6 -8 4 -8 13
0 13 -1 0 -10 -13 -8 -12 -10 5 -11 17 -1 17 -2 2 -6 -9 -2 -14 -9 -11 -14 10
-16 10 -119 0 -119 -4 0 -3 -7 4 -15 10 -12 10 -15 -1 -16 -8 0 -5 -4 6 -9
l20 -9 -20 0 c-13 -1 -16 -4 -8 -9 7 -5 9 -13 4 -21 -5 -8 -5 -27 -1 -42 6
-20 5 -29 -3 -30 -7 0 -3 -4 8 -9 l20 -9 -20 0 c-17 -1 -17 -3 -5 -11 13 -9
13 -10 0 -10 -13 0 -13 -1 0 -10 13 -9 13 -10 0 -11 -10 0 -8 -3 5 -9 18 -8
18 -9 2 -9 -15 -1 -16 -5 -7 -21 8 -15 8 -20 -2 -21 -7 0 -4 -4 7 -9 l20 -9
-20 0 c-11 -1 -16 -5 -10 -9 14 -10 15 -42 2 -42 -7 0 -7 -4 1 -12 15 -15 16
-31 0 -22 -7 4 -8 3 -4 -5 12 -19 15 -81 4 -81 -6 0 -5 -7 3 -16 10 -13 10
-17 0 -24 -9 -5 -10 -10 -2 -14 6 -4 11 -12 11 -17 0 -6 -4 -8 -9 -5 -5 4 -11
1 -13 -6 -5 -13 -58 -18 -58 -5 0 5 -7 4 -15 -3 -9 -8 -15 -8 -15 -2 0 12 -38
10 -58 -2 -7 -4 -12 -2 -12 5 0 9 -3 9 -14 0 -11 -9 -15 -9 -19 1 -4 10 -8 10
-16 -2 -10 -13 -12 -13 -21 0 -9 13 -10 13 -10 0 0 -13 -1 -13 -10 0 -9 13
-11 13 -20 0 -9 -13 -10 -13 -10 0 0 13 -1 13 -11 0 -8 -11 -12 -12 -16 -3 -3
10 -10 10 -25 2 -16 -9 -19 -8 -12 3 6 11 5 11 -9 -1 -13 -10 -17 -10 -17 -1
0 10 -3 10 -15 0 -12 -10 -15 -10 -15 0 0 10 -3 10 -15 0 -12 -10 -15 -10 -15
1 0 11 -2 11 -10 -1 -9 -13 -10 -13 -10 0 0 13 -1 13 -10 0 -9 -13 -10 -13
-10 0 0 13 -1 13 -10 0 -9 -13 -10 -13 -10 0 0 13 -1 13 -10 0 -8 -12 -10 -12
-11 5 0 15 -2 16 -7 5 -7 -16 -52 -23 -52 -8 0 4 -5 8 -11 8 -5 0 -8 -4 -5 -8
3 -5 -2 -9 -10 -9 -9 0 -13 6 -9 15 4 12 2 12 -8 4 -8 -7 -17 -9 -20 -5 -4 3
-7 1 -7 -6 0 -7 -5 -9 -10 -6 -6 4 -7 12 -3 18 4 8 1 7 -9 -1 -13 -10 -18 -10
-24 -1 -5 8 -3 9 6 4 10 -6 12 -4 7 8 -4 11 1 18 14 22 11 4 18 13 16 20 -3 7
1 12 11 11 9 0 17 6 17 14 1 8 6 14 13 13 7 -2 12 2 12 7 0 6 18 28 39 49 22
22 36 43 33 47 -4 4 1 4 11 1 11 -4 16 -3 12 3 -3 6 -1 10 4 10 6 0 10 3 9 8
-4 9 39 52 52 52 6 0 10 6 10 14 0 8 9 17 19 21 12 4 18 12 14 21 -3 9 1 14
12 14 11 0 15 5 12 14 -4 10 -1 13 8 10 7 -3 16 3 20 15 3 12 13 21 21 21 8 0
13 4 10 9 -3 5 1 12 10 15 8 3 12 10 9 16 -3 5 -1 10 4 10 18 0 52 40 45 52
-4 7 -3 8 5 4 15 -9 44 20 35 35 -4 8 -3 9 4 5 7 -4 12 -2 12 4 0 6 3 9 8 7 9
-6 33 19 25 27 -4 3 0 6 7 6 7 0 10 3 7 7 -8 7 34 39 46 35 5 -1 6 2 2 7 -3 6
4 15 16 21 11 7 18 14 15 18 -4 3 6 18 20 33 21 22 29 25 39 16 9 -9 10 -14 1
-19z"/>
<path d="M1529 2733 c-13 -16 -12 -17 4 -4 16 13 21 21 13 21 -2 0 -10 -8 -17
-17z"/>
<path d="M3797 2523 c-4 -3 -7 -11 -7 -17 0 -6 5 -4 10 4 5 8 10 10 10 4 0
-18 -13 -24 -27 -13 -10 9 -17 8 -30 -2 -11 -9 -14 -10 -9 -2 5 9 2 11 -8 7
-9 -3 -16 -10 -16 -15 0 -5 -4 -9 -10 -9 -5 0 -7 8 -4 18 5 16 5 16 -6 0 -6
-10 -18 -18 -26 -18 -8 0 -12 -4 -9 -10 9 -14 -9 -12 -24 3 -10 10 -11 8 -5
-8 7 -18 6 -19 -10 -6 -14 12 -17 12 -14 1 2 -8 -7 -19 -19 -25 -13 -5 -23
-16 -23 -23 0 -7 -4 -10 -10 -7 -5 3 -10 1 -10 -5 0 -7 -7 -9 -17 -6 -10 4
-14 4 -10 0 10 -10 -13 -35 -26 -27 -5 3 -7 1 -4 -4 4 -6 -5 -23 -18 -37 -14
-15 -25 -34 -25 -42 0 -8 -4 -12 -10 -9 -5 3 -10 -3 -10 -14 0 -11 -5 -23 -10
-26 -6 -4 -8 -11 -5 -16 4 -5 1 -9 -5 -9 -6 0 -9 -4 -5 -9 3 -5 1 -12 -5 -16
-6 -4 -8 -10 -5 -15 3 -4 -1 -20 -9 -35 -8 -15 -13 -38 -11 -51 1 -13 -3 -24
-9 -24 -6 0 -4 -5 4 -10 12 -8 12 -10 -5 -10 -19 -1 -19 -1 -2 -11 14 -8 16
-14 6 -25 -6 -8 -8 -14 -4 -14 4 0 1 -8 -6 -17 -10 -11 -10 -14 -1 -9 6 4 12
3 12 -1 0 -5 -6 -15 -12 -22 -10 -11 -10 -13 0 -7 7 5 12 1 12 -9 0 -10 -5
-13 -12 -9 -8 5 -7 0 2 -10 8 -11 13 -29 12 -41 -2 -13 0 -25 5 -28 4 -3 8
-24 7 -46 0 -31 3 -41 15 -41 9 0 12 -3 6 -8 -17 -12 -16 -32 1 -32 13 0 14
-3 5 -14 -9 -11 -9 -16 0 -22 8 -5 9 -3 4 6 -5 9 -4 11 3 6 7 -4 12 -16 12
-26 0 -10 8 -24 18 -29 9 -6 13 -11 8 -11 -5 0 1 -9 13 -19 16 -14 18 -21 9
-24 -11 -4 -11 -6 0 -6 7 -1 23 -12 36 -26 13 -13 26 -22 29 -18 4 3 7 -2 7
-11 0 -12 5 -16 15 -12 8 3 14 2 14 -2 -3 -17 2 -32 9 -31 25 4 42 -3 42 -18
0 -15 2 -16 10 -3 7 11 10 11 10 2 0 -8 5 -10 12 -6 8 5 9 2 4 -11 -5 -15 -4
-16 9 -5 12 10 16 9 21 -3 6 -15 20 -17 40 -4 7 4 17 0 24 -8 9 -11 17 -12 30
-5 13 7 21 6 26 -2 4 -6 3 -8 -4 -4 -6 3 -13 2 -16 -3 -5 -7 22 -8 32 -1 8 7
28 4 34 -5 5 -6 8 -4 8 5 0 13 1 13 10 0 5 -8 10 -10 10 -3 0 6 9 9 20 6 12
-3 20 0 20 7 0 9 4 9 17 -1 11 -10 14 -10 9 -1 -6 11 11 17 37 13 4 0 7 4 7
11 0 6 3 8 7 5 3 -4 13 -1 21 6 13 10 14 9 8 -3 -4 -8 2 -4 14 10 12 14 19 19
15 11 -5 -9 1 -8 19 4 14 9 24 20 22 24 -3 4 5 13 17 21 21 12 21 12 7 -6 -14
-18 -14 -18 3 -5 9 7 17 20 17 28 0 8 5 11 10 8 6 -3 10 1 10 9 0 8 9 20 20
26 11 6 18 15 15 21 -4 5 -1 9 4 9 6 0 19 18 28 40 10 22 21 40 25 40 4 0 4 7
1 17 -4 9 -2 14 3 10 6 -3 15 3 22 13 7 11 8 21 2 25 -5 3 -7 12 -4 20 4 8 11
12 16 9 6 -4 5 3 -1 15 -11 20 -8 26 13 22 5 -1 4 5 -4 13 -7 9 -8 16 -2 16 5
0 8 10 4 22 -4 16 -2 19 9 13 12 -7 12 -6 1 7 -7 8 -9 24 -5 33 5 14 3 16 -8
10 -11 -7 -12 -6 -2 7 7 8 10 18 6 21 -3 4 0 7 8 7 12 0 12 2 0 9 -13 8 -13
12 0 27 12 15 12 17 0 9 -11 -6 -13 -4 -8 8 4 10 -1 21 -11 27 -12 9 -13 10
-2 7 13 -4 15 2 12 29 -2 19 -7 34 -11 34 -8 0 -11 16 -12 54 0 11 -8 26 -17
33 -9 8 -11 12 -5 8 9 -4 11 -1 7 9 -3 9 -11 13 -18 9 -7 -4 -6 -1 1 9 11 12
9 18 -7 33 -11 10 -20 24 -20 32 0 7 -4 13 -10 13 -5 0 -10 7 -10 16 0 8 -4
12 -10 9 -5 -3 -12 6 -16 20 -3 14 -9 24 -12 21 -6 -7 -42 33 -42 48 0 6 -5 4
-10 -4 -8 -13 -10 -12 -10 4 0 11 -3 16 -7 13 -3 -4 -12 1 -20 11 -10 11 -12
12 -8 2 4 -9 0 -7 -9 4 -8 10 -19 15 -24 12 -6 -3 -13 1 -16 10 -3 8 -14 14
-23 12 -10 -2 -17 2 -16 8 1 6 -4 11 -12 11 -8 0 -12 -4 -9 -9 3 -4 0 -8 -5
-8 -6 0 -11 5 -11 10 0 6 -3 9 -7 9 -22 -4 -33 2 -28 14 4 6 -1 3 -9 -7 -12
-15 -16 -16 -16 -5 0 12 -2 12 -10 -1 -5 -8 -10 -10 -10 -3 0 6 -9 9 -20 6
-11 -3 -26 0 -33 6 -8 6 -17 8 -20 4z m77 -65 c-5 -7 -2 -9 8 -5 9 3 21 0 28
-6 10 -9 11 -9 6 0 -3 6 -2 14 4 18 5 3 10 -1 10 -9 0 -10 6 -13 17 -9 12 5
14 3 8 -8 -8 -12 -6 -12 8 0 13 10 17 10 17 1 0 -7 7 -10 16 -6 12 5 15 2 10
-9 -4 -11 -2 -14 6 -9 6 4 17 -1 25 -11 9 -13 13 -15 13 -5 0 9 6 6 16 -8 8
-12 22 -22 30 -22 8 0 14 -6 14 -12 1 -7 14 -24 30 -38 17 -13 30 -28 30 -33
0 -5 10 -18 21 -28 18 -16 20 -21 9 -34 -11 -13 -11 -16 1 -13 8 2 13 -3 11
-9 -1 -7 2 -13 6 -13 5 0 9 -7 10 -15 1 -8 3 -22 4 -30 1 -8 5 -15 10 -15 4 0
8 -5 8 -11 0 -5 -6 -7 -12 -3 -10 6 -10 5 -1 -7 7 -9 14 -30 15 -48 1 -18 6
-35 10 -37 4 -3 2 -14 -5 -25 -10 -16 -9 -21 3 -29 13 -9 13 -10 0 -10 -12 0
-12 -2 -1 -9 9 -6 10 -10 2 -16 -9 -5 -9 -11 1 -23 10 -12 10 -14 1 -8 -7 4
-13 2 -13 -3 0 -6 6 -11 13 -11 7 -1 5 -6 -5 -14 -10 -7 -15 -16 -11 -20 9 -9
13 -36 5 -35 -19 3 -25 -2 -13 -10 11 -7 10 -13 -3 -33 -9 -14 -13 -28 -10
-31 4 -4 1 -13 -5 -21 -7 -8 -10 -20 -6 -26 4 -6 1 -9 -7 -8 -7 2 -12 -5 -12
-14 1 -10 -4 -18 -12 -18 -8 0 -14 -5 -14 -11 0 -5 6 -7 13 -4 6 4 3 0 -7 -9
-10 -8 -24 -12 -30 -9 -6 4 -5 -1 3 -10 11 -14 11 -17 0 -18 -8 -1 -18 -1 -22
0 -5 1 -6 -3 -2 -9 7 -11 -18 -40 -35 -40 -6 0 -8 -4 -5 -10 3 -5 -1 -10 -10
-10 -10 0 -13 -5 -9 -12 5 -8 0 -7 -11 2 -10 8 -16 11 -13 5 3 -5 0 -16 -8
-23 -11 -10 -14 -10 -14 0 0 8 -5 6 -11 -5 -6 -9 -14 -15 -20 -12 -5 4 -9 1
-9 -6 0 -8 -4 -8 -15 1 -12 10 -15 9 -15 -6 0 -16 -2 -17 -10 -4 -5 8 -10 10
-10 4 0 -7 -9 -14 -21 -17 -16 -4 -19 -2 -15 11 5 15 4 15 -7 2 -14 -17 -42
-26 -32 -10 3 5 -2 10 -12 10 -15 0 -16 2 -3 10 13 9 13 10 0 10 -12 0 -12 2
-1 9 9 6 10 11 2 15 -6 4 -9 12 -6 17 11 17 14 50 4 44 -5 -4 -9 -1 -9 4 0 6
5 11 11 11 8 0 7 6 -2 17 -12 15 -12 16 1 8 12 -6 13 -5 3 6 -15 15 -18 33 -5
25 5 -3 9 1 9 9 0 8 -4 15 -9 15 -4 0 -8 5 -8 11 0 5 6 7 13 3 8 -5 8 -2 -2 9
-11 14 -11 17 0 17 9 0 10 3 4 8 -12 8 -13 27 -3 38 4 4 3 13 -3 21 -9 10 -8
13 2 13 11 0 11 2 -1 10 -11 7 -11 10 -2 10 7 0 10 5 7 10 -4 6 -12 8 -18 4
-7 -3 -3 2 7 10 15 12 16 16 5 17 -11 0 -11 2 0 6 11 5 11 7 0 14 -12 8 -11
11 1 19 8 5 10 10 4 10 -6 0 -11 11 -11 25 0 15 4 22 11 18 6 -3 6 0 -1 8 -7
7 -13 17 -13 22 0 4 6 5 13 1 10 -6 10 -4 0 7 -7 7 -13 17 -13 22 0 4 6 5 13
1 10 -6 10 -4 0 7 -14 14 -18 33 -5 25 4 -2 8 4 8 15 0 10 -7 19 -15 19 -11 0
-10 4 5 16 10 8 13 13 7 9 -7 -3 -13 -1 -13 4 0 6 6 11 13 12 9 0 9 2 -1 6 -9
4 -10 8 -2 18 8 10 8 15 0 20 -8 5 -7 11 2 23 10 12 10 14 1 8 -7 -4 -13 -2
-13 3 0 6 5 11 12 11 6 0 3 7 -8 15 -12 10 -14 13 -3 10 12 -5 15 1 14 22 -1
16 -5 35 -10 42 -5 9 -2 19 10 28 17 12 17 13 2 13 -18 0 -19 20 -2 32 6 5 4
8 -5 8 -13 0 -13 1 0 10 12 8 12 10 1 10 -10 0 -11 3 -2 14 9 11 9 16 0 22 -8
5 -4 13 12 25 28 22 33 23 23 7z"/>
<path d="M3076 1614 c-11 -10 -16 -11 -16 -3 0 7 -8 2 -19 -9 -10 -12 -21 -18
-25 -15 -4 4 -4 -1 0 -11 5 -14 4 -17 -4 -12 -7 4 -12 4 -13 -1 -5 -55 -3 -85
4 -90 6 -4 7 -1 2 7 -5 8 -4 11 3 6 6 -4 9 -13 5 -21 -3 -9 1 -15 10 -15 9 0
19 -5 23 -12 5 -7 3 -8 -6 -3 -8 5 -11 4 -6 -3 4 -6 13 -9 21 -5 8 3 15 -1 15
-8 0 -7 3 -9 7 -6 3 4 13 1 21 -6 13 -10 15 -9 9 5 -4 12 -2 15 8 11 8 -3 12
-10 8 -16 -3 -5 -2 -7 4 -4 10 6 67 19 90 20 7 0 15 7 18 16 5 13 7 14 15 1 8
-13 10 -12 10 3 0 12 5 16 13 11 9 -5 9 -4 0 6 -10 11 -9 16 5 26 13 10 14 13
3 14 -11 0 -10 4 5 16 10 8 14 13 8 10 -18 -9 -26 24 -12 42 7 9 8 13 2 9 -5
-3 -23 5 -39 19 -16 14 -35 22 -42 20 -7 -3 -13 -1 -13 4 0 14 -44 12 -59 -2
-11 -10 -13 -10 -7 0 4 6 3 12 -1 12 -5 0 -15 -6 -22 -12 -11 -10 -13 -10 -7
0 10 17 1 15 -18 -4z"/>
</g>
</svg>
